<svg width="18" height="12" viewBox="0 0 18 12" fill="none" xmlns="http://www.w3.org/2000/svg">
<mask id="mask0_1053_906" style="mask-type:alpha" maskUnits="userSpaceOnUse" x="0" y="0" width="18" height="12">
<rect x="0.5" width="17" height="12" fill="#D9D9D9"/>
</mask>
<g mask="url(#mask0_1053_906)">
<path d="M6.49796 9.18394L14.973 0.708936C15.173 0.508936 15.4063 0.408936 15.673 0.408936C15.9396 0.408936 16.173 0.508936 16.373 0.708936C16.573 0.908936 16.673 1.14644 16.673 1.42144C16.673 1.69644 16.573 1.93394 16.373 2.13394L7.19796 11.3339C6.99796 11.5339 6.76463 11.6339 6.49796 11.6339C6.23129 11.6339 5.99796 11.5339 5.79796 11.3339L1.49796 7.03394C1.29796 6.83394 1.20213 6.59644 1.21046 6.32144C1.21879 6.04644 1.32296 5.80894 1.52296 5.60894C1.72296 5.40894 1.96046 5.30894 2.23546 5.30894C2.51046 5.30894 2.74796 5.40894 2.94796 5.60894L6.49796 9.18394Z" fill="#245BFF"/>
</g>
</svg>
